PathFileType	4	(x/y/z)	Passive_Pref0007.trc
DataRate	CameraRate	NumFrames	NumMarkers	Units	OrigDataRate	OrigDataStartFrame	OrigNumFrames
240	240	10	50	mm	240	113	299
Frame#	Time	R_AC			L_AC			HEAD			STERN			C7			L_IC			R_IC			L_ASIS			R_ASIS			L_GT			R_GT			R_PSIS			L_PSIS			SACRAL			L_LAT_KNEE			L_MED_KNEE			R_LAT_KNEE			R_MED_KNEE			L_LAT_ANK			L_MED_ANK			R_LAT_ANK			R_MED_ANK			L_THIGH_PROX_POST			L_THIGH_PROX_ANT			L_THIGH_DIST_ANT			L_THIGH_DIST_POST			R_THIGH_PROX_POST			R_THIGH_PROX_ANT			R_THIGH_DIST_ANT			R_THIGH_DIST_POST			L_SHANK_PROX_POST			L_SHANK_PROX_ANT			L_SHANK_DIST_ANT			L_SHANK_DIST_POST			R_SHANK_PROX_POST			R_SHANK_PROX_ANT			R_SHANK_DIST_ANT			R_SHANK_DIST_POST			L_HEEL_LAT			L_HEEL_SUP			L_HEEL_MED			R_HEEL_LAT			R_HEEL_SUP			R_HEEL_MED			L_1ST_MET			L_5TH_MET			L_TOE			R_1ST_MET			R_5TH_MET			R_TOE			
		X1	Y1	Z1	X2	Y2	Z2	X3	Y3	Z3	X4	Y4	Z4	X5	Y5	Z5	X6	Y6	Z6	X7	Y7	Z7	X8	Y8	Z8	X9	Y9	Z9	X10	Y10	Z10	X11	Y11	Z11	X12	Y12	Z12	X13	Y13	Z13	X14	Y14	Z14	X15	Y15	Z15	X16	Y16	Z16	X17	Y17	Z17	X18	Y18	Z18	X19	Y19	Z19	X20	Y20	Z20	X21	Y21	Z21	X22	Y22	Z22	X23	Y23	Z23	X24	Y24	Z24	X25	Y25	Z25	X26	Y26	Z26	X27	Y27	Z27	X28	Y28	Z28	X29	Y29	Z29	X30	Y30	Z30	X31	Y31	Z31	X32	Y32	Z32	X33	Y33	Z33	X34	Y34	Z34	X35	Y35	Z35	X36	Y36	Z36	X37	Y37	Z37	X38	Y38	Z38	X39	Y39	Z39	X40	Y40	Z40	X41	Y41	Z41	X42	Y42	Z42	X43	Y43	Z43	X44	Y44	Z44	X45	Y45	Z45	X46	Y46	Z46	X47	Y47	Z47	X48	Y48	Z48	X49	Y49	Z49	X50	Y50	Z50	

113	0.46823	-225.79	1528.5	467.29	-231.74	1546.6	62.893	-156.59	1846.4	281.7	-143.99	1481.1	272.96	-295.74	1580.7	268.52	-281.93	1103.8	114.34	-254.43	1131.9	453.38	-210.01	1030.1	140.29	-185.28	1043.5	410.26	-326.37	957.42	103.6	-276.65	962.26	470.43	-409.58	1037.3	341.11	-419.39	1045.9	257.1	-425.99	1008.3	296.02	-356.46	556.68	132.11	-330.53	565.89	268.5	-109.28	573.27	458.33	-94.452	569.97	321.14	-477.81	128.78	163.59	-492.25	126.39	244.48	-70.143	106.59	420.32	-26.404	145.44	330.09	-314.1	791.4	108.34	-250.09	778.27	131.95	-261.96	706.82	138.64	-322.81	715.84	118.72	-263.53	803.03	456.2	-208.78	829.16	480.53	-184.04	757.75	477.2	-230.3	736.09	451.65	-362.43	501.86	145.24	-305.57	520.36	157.98	-315.06	454.65	172.37	-369.11	440.29	150.39	-140.98	406.83	456.97	-83.775	415.74	463.55	-73.356	341.33	454.8	-127.86	330.3	445.79	-544.47	62.752	161.08	-562.35	91.228	192.53	-559.94	62.351	229.46	-121	46.441	366.79	-118.25	75.865	333.13	-82.408	58.844	314.5	-348.79	37.265	282.98	-346.32	39.551	165.44	-285	57.926	249.18	114.42	110.13	376.83	53.491	81.235	476.62	141.8	131.64	444.33
114	0.47241	-220.12	1527.9	467.68	-226.74	1546.1	63.342	-151.4	1845.8	282.18	-138.69	1480.5	273.2	-290.45	1580.2	269.04	-277.42	1103.4	114.7	-248.66	1131.2	453.68	-205.52	1029.6	140.32	-179.69	1042.6	410.2	-322.17	957.18	104	-271.15	961.5	470.62	-404.21	1037	341.82	-414.37	1045.8	257.92	-421.01	1008.1	296.84	-353.95	556.59	132.32	-327.95	565.61	268.72	-105.09	571.95	458.08	-90.762	568.57	320.76	-477.42	129.2	163.66	-491.91	126.7	244.51	-55.078	106.17	420.81	-12.811	145.96	330.45	-310.57	791.3	108.67	-246.65	777.82	132.06	-258.85	706.41	138.77	-319.65	715.74	118.99	-258.92	802.18	456.06	-204.09	827.99	480.52	-179.69	756.47	476.98	-226.01	735.1	451.35	-360.19	501.79	145.42	-303.2	520.03	158.14	-313.06	454.35	172.53	-367.19	440.26	150.58	-133.11	404.89	457.2	-76.108	415.17	463.55	-63.972	341	454.89	-118.24	328.66	446.11	-544.34	63.212	161.15	-562.05	91.662	192.62	-559.81	62.813	229.55	-104.73	44.576	367.71	-102.84	73.957	334	-66.731	57.881	315.21	-348.73	37.121	282.88	-346.25	39.561	165.47	-284.85	57.726	249.2	129.03	114.4	376.68	69.281	84.204	476.73	156.15	136.76	444.05
115	0.47659	-214.41	1527.3	468.09	-221.72	1545.4	63.811	-146.2	1845.2	282.67	-133.38	1479.8	273.45	-285.12	1579.6	269.58	-272.91	1103	115.07	-242.87	1130.4	453.97	-201.01	1029.1	140.35	-174.06	1041.8	410.13	-317.95	956.93	104.41	-265.59	960.7	470.8	-398.77	1036.6	342.54	-409.31	1045.5	258.75	-415.99	1007.9	297.67	-351.41	556.49	132.53	-325.34	565.32	268.94	-100.92	570.6	457.84	-87.124	567.12	320.4	-477.02	129.63	163.73	-491.55	127	244.55	-40.23	105.94	421.24	0.54477	146.64	330.75	-307.03	791.18	108.99	-243.19	777.36	132.16	-255.72	705.99	138.92	-316.45	715.64	119.26	-254.26	801.31	455.96	-199.36	826.78	480.51	-175.3	755.16	476.79	-221.7	734.08	451.08	-357.94	501.71	145.61	-300.79	519.68	158.29	-311.05	454.04	172.7	-365.24	440.22	150.76	-125.3	403.03	457.44	-68.515	414.63	463.55	-54.698	340.74	454.98	-108.71	327.11	446.44	-544.2	63.682	161.23	-561.76	92.107	192.72	-559.67	63.283	229.64	-88.693	42.962	368.6	-87.652	72.286	334.83	-51.306	57.151	315.85	-348.68	36.971	282.77	-346.19	39.571	165.49	-284.71	57.525	249.22	143.31	118.79	376.4	84.803	87.314	476.73	170.19	141.97	443.63
116	0.48077	-208.68	1526.6	468.52	-216.7	1544.8	64.301	-141	1844.6	283.19	-128.06	1479.1	273.71	-279.76	1579	270.14	-268.38	1102.7	115.44	-237.05	1129.7	454.26	-196.48	1028.6	140.36	-168.38	1041	410.03	-313.71	956.65	104.82	-259.96	959.87	470.96	-393.27	1036.2	343.26	-404.22	1045.3	259.59	-410.93	1007.6	298.49	-348.85	556.38	132.74	-322.69	565.01	269.16	-96.75	569.24	457.62	-83.524	565.64	320.06	-476.62	130.07	163.81	-491.17	127.31	244.6	-25.625	105.89	421.64	13.649	147.45	330.99	-303.46	791.04	109.3	-239.71	776.89	132.26	-252.56	705.57	139.07	-313.23	715.52	119.53	-249.56	800.42	455.89	-194.57	825.56	480.52	-170.89	753.83	476.62	-217.36	733.04	450.86	-355.65	501.62	145.8	-298.34	519.32	158.43	-309	453.71	172.86	-363.27	440.17	150.95	-117.53	401.24	457.69	-60.994	414.15	463.55	-45.539	340.55	455.05	-99.267	325.67	446.76	-544.06	64.165	161.32	-561.46	92.565	192.83	-559.52	63.763	229.74	-72.906	41.588	369.43	-72.706	70.842	335.62	-36.156	56.642	316.43	-348.63	36.819	282.66	-346.13	39.583	165.52	-284.56	57.323	249.25	157.25	123.25	376	100.03	90.539	476.63	183.9	147.22	443.09
117	0.48496	-202.93	1526	468.97	-211.66	1544.1	64.812	-135.8	1843.9	283.71	-122.72	1478.4	274	-274.38	1578.4	270.73	-263.83	1102.3	115.8	-231.19	1128.9	454.53	-191.92	1028	140.36	-162.66	1040.1	409.91	-309.43	956.37	105.24	-254.28	959.01	471.12	-387.71	1035.7	343.97	-399.09	1045	260.44	-405.81	1007.3	299.32	-346.25	556.26	132.96	-320.01	564.69	269.39	-92.567	567.86	457.42	-79.947	564.14	319.74	-476.2	130.51	163.89	-490.78	127.63	244.64	-11.289	106.01	421.97	26.485	148.38	331.17	-299.86	790.89	109.61	-236.2	776.4	132.34	-249.37	705.13	139.22	-309.96	715.39	119.8	-244.8	799.53	455.86	-189.72	824.33	480.54	-166.42	752.48	476.48	-212.98	731.99	450.68	-353.33	501.52	145.99	-295.86	518.95	158.58	-306.93	453.38	173.03	-361.26	440.12	151.14	-109.81	399.53	457.95	-53.547	413.69	463.54	-36.501	340.42	455.1	-89.933	324.32	447.06	-543.92	64.66	161.4	-561.16	93.036	192.94	-559.37	64.255	229.84	-57.4	40.44	370.21	-58.029	69.612	336.35	-21.302	56.336	316.93	-348.58	36.668	282.55	-346.06	39.594	165.55	-284.41	57.118	249.27	170.83	127.76	375.5	114.94	93.853	476.43	197.28	152.48	442.43
118	0.48914	-197.15	1525.3	469.44	-206.62	1543.4	65.344	-130.6	1843.3	284.25	-117.37	1477.7	274.29	-268.96	1577.7	271.33	-259.26	1101.8	116.17	-225.32	1128.1	454.81	-187.33	1027.5	140.35	-156.89	1039.2	409.77	-305.13	956.06	105.65	-248.54	958.13	471.26	-382.09	1035.2	344.69	-393.92	1044.8	261.28	-400.65	1007	300.15	-343.62	556.12	133.18	-317.28	564.36	269.61	-88.355	566.48	457.24	-76.376	562.62	319.45	-475.78	130.97	163.98	-490.36	127.95	244.69	2.754	106.27	422.26	39.04	149.41	331.28	-296.22	790.72	109.92	-232.66	775.91	132.42	-246.14	704.69	139.39	-306.66	715.25	120.07	-239.96	798.62	455.87	-184.79	823.09	480.58	-161.89	751.12	476.37	-208.53	730.92	450.56	-350.98	501.42	146.18	-293.33	518.57	158.72	-304.82	453.03	173.19	-359.22	440.06	151.33	-102.16	397.89	458.2	-46.173	413.28	463.54	-27.589	340.35	455.14	-80.711	323.07	447.36	-543.77	65.168	161.5	-560.86	93.522	193.06	-559.22	64.759	229.95	-42.203	39.5	370.91	-43.645	68.582	337.01	-6.7671	56.218	317.35	-348.53	36.523	282.45	-346	39.607	165.58	-284.26	56.91	249.29	184.04	132.28	374.9	129.5	97.226	476.14	210.29	157.73	441.67
119	0.49332	-191.34	1524.6	469.92	-201.57	1542.7	65.898	-125.4	1842.6	284.8	-112.01	1477	274.6	-263.52	1577	271.97	-254.67	1101.4	116.53	-219.41	1127.2	455.08	-182.71	1026.9	140.33	-151.08	1038.3	409.62	-300.79	955.74	106.06	-242.73	957.22	471.4	-376.43	1034.7	345.41	-388.72	1044.4	262.13	-395.42	1006.6	300.97	-340.95	555.97	133.41	-314.52	564.02	269.84	-84.099	565.1	457.08	-72.795	561.09	319.17	-475.35	131.43	164.07	-489.92	128.28	244.74	16.478	106.65	422.48	51.3	150.53	331.33	-292.55	790.54	110.21	-229.07	775.4	132.49	-242.88	704.24	139.55	-303.31	715.09	120.34	-235.05	797.71	455.92	-179.78	821.84	480.63	-157.29	749.76	476.28	-204.02	729.85	450.48	-348.59	501.31	146.38	-290.77	518.17	158.86	-302.68	452.67	173.36	-357.16	439.99	151.53	-94.557	396.34	458.46	-38.873	412.89	463.52	-18.808	340.33	455.15	-71.61	321.92	447.64	-543.63	65.691	161.59	-560.56	94.026	193.18	-559.06	65.277	230.06	-27.343	38.75	371.55	-29.577	67.735	337.6	7.4268	56.266	317.69	-348.48	36.384	282.36	-345.93	39.621	165.61	-284.1	56.698	249.3	196.87	136.78	374.21	143.7	100.62	475.77	222.95	162.92	440.81
120	0.4975	-185.51	1523.8	470.43	-196.51	1542	66.475	-120.19	1841.9	285.37	-106.64	1476.2	274.93	-258.06	1576.3	272.63	-250.06	1100.9	116.89	-213.49	1126.3	455.35	-178.06	1026.3	140.3	-145.24	1037.4	409.44	-296.42	955.39	106.47	-236.87	956.29	471.54	-370.74	1034.1	346.13	-383.48	1044.1	262.98	-390.14	1006.2	301.79	-338.24	555.81	133.63	-311.71	563.66	270.07	-79.785	563.74	456.93	-69.184	559.56	318.92	-474.9	131.9	164.16	-489.46	128.61	244.79	29.862	107.14	422.63	63.249	151.71	331.32	-288.83	790.33	110.5	-225.44	774.87	132.55	-239.57	703.78	139.72	-299.91	714.91	120.61	-230.05	796.8	456.01	-174.68	820.61	480.69	-152.59	748.4	476.23	-199.42	728.77	450.46	-346.17	501.2	146.58	-288.18	517.75	159	-300.51	452.3	173.53	-355.05	439.91	151.72	-87.021	394.86	458.7	-31.644	412.53	463.5	-10.161	340.34	455.15	-62.636	320.84	447.89	-543.47	66.229	161.69	-560.26	94.547	193.31	-558.89	65.811	230.17	-12.847	38.168	372.09	-15.849	67.05	338.11	21.258	56.459	317.94	-348.42	36.254	282.27	-345.86	39.635	165.64	-283.95	56.483	249.32	209.3	141.23	373.45	157.5	104.02	475.31	235.22	168.01	439.88
121	0.50168	-179.65	1523	470.95	-191.45	1541.3	67.075	-114.99	1841.2	285.95	-101.26	1475.4	275.28	-252.57	1575.6	273.31	-245.43	1100.5	117.24	-207.54	1125.4	455.61	-173.38	1025.7	140.27	-139.37	1036.4	409.25	-292.01	955.03	106.87	-230.95	955.34	471.67	-365.02	1033.5	346.86	-378.21	1043.7	263.83	-384.8	1005.8	302.6	-335.48	555.63	133.86	-308.85	563.29	270.29	-75.397	562.38	456.8	-65.525	558.05	318.69	-474.45	132.38	164.26	-488.98	128.96	244.84	42.881	107.71	422.73	74.876	152.93	331.24	-285.07	790.1	110.77	-221.76	774.33	132.62	-236.21	703.31	139.88	-296.46	714.72	120.87	-224.95	795.88	456.15	-169.48	819.38	480.76	-147.81	747.06	476.2	-194.72	727.68	450.5	-343.7	501.07	146.78	-285.54	517.32	159.14	-298.29	451.92	173.69	-352.91	439.82	151.91	-79.551	393.45	458.94	-24.486	412.19	463.48	-1.6552	340.38	455.12	-53.8	319.85	448.13	-543.32	66.784	161.79	-559.96	95.089	193.44	-558.71	66.363	230.28	1.2558	37.732	372.55	-2.4845	66.508	338.53	34.703	56.772	318.1	-348.36	36.135	282.2	-345.79	39.65	165.67	-283.79	56.263	249.34	221.33	145.59	372.62	170.89	107.36	474.77	247.1	172.98	438.88
122	0.50586	-173.78	1522.2	471.5	-186.38	1540.5	67.697	-109.77	1840.5	286.55	-95.868	1474.6	275.65	-247.06	1574.9	274.02	-240.76	1100	117.59	-201.58	1124.4	455.88	-168.66	1025.1	140.23	-133.46	1035.5	409.05	-287.57	954.64	107.27	-224.97	954.38	471.8	-359.28	1032.9	347.58	-372.9	1043.2	264.67	-379.4	1005.3	303.39	-332.68	555.44	134.08	-305.95	562.9	270.52	-70.922	561.05	456.68	-61.796	556.55	318.48	-473.97	132.88	164.36	-488.48	129.31	244.88	55.515	108.33	422.75	86.167	154.16	331.11	-281.26	789.85	111.04	-218.03	773.77	132.68	-232.8	702.82	140.05	-292.96	714.51	121.13	-219.75	794.96	456.33	-164.18	818.17	480.85	-142.91	745.73	476.2	-189.91	726.6	450.58	-341.2	500.94	146.98	-282.87	516.87	159.28	-296.04	451.52	173.86	-350.73	439.73	152.1	-72.151	392.1	459.15	-17.399	411.85	463.44	6.7069	340.43	455.07	-45.108	318.92	448.33	-543.16	67.357	161.89	-559.65	95.651	193.57	-558.53	66.934	230.39	14.939	37.416	372.91	10.493	66.087	338.86	47.743	57.179	318.16	-348.29	36.025	282.14	-345.72	39.667	165.7	-283.62	56.038	249.36	232.96	149.82	371.73	183.85	110.63	474.17	258.59	177.78	437.83
